<?xml version="1.0" encoding="utf-8"?>
<!-- Generator: Adobe Illustrator 22.0.0, SVG Export Plug-In . SVG Version: 6.00 Build 0)  -->
<svg version="1.2" baseProfile="tiny" id="Layer_1" xmlns="http://www.w3.org/2000/svg" xmlns:xlink="http://www.w3.org/1999/xlink"
	 x="0px" y="0px" viewBox="0 0 100.5 58.7" xml:space="preserve">
<g>
	<g>
		<path fill="#FFFFFF" d="M1.8,49.3h3.9c1.9,0,3.4,1.5,3.3,3.4c-0.1,1.9-1.7,3.4-3.6,3.4H3.9l-0.1,2.5H1.3L1.8,49.3z M4,54.1h1.5
			c0.7,0,1.4-0.6,1.4-1.3c0-0.7-0.5-1.3-1.3-1.3H4.1L4,54.1z"/>
		<path fill="#FFFFFF" d="M14.8,58.7l-1.3-2.5H12l-0.1,2.5H9.4l0.5-9.4h3.9c1.9,0,3.4,1.5,3.3,3.4c-0.1,1-0.5,1.9-1.2,2.5l1.8,3.4
			H14.8z M12.1,54.1h1.5c0.7,0,1.4-0.6,1.4-1.3c0-0.7-0.5-1.3-1.3-1.3h-1.5L12.1,54.1z"/>
		<path fill="#FFFFFF" d="M22.9,49.3c2.6,0,4.6,2.1,4.4,4.7c-0.1,2.6-2.3,4.7-4.9,4.7c-2.6,0-4.6-2.1-4.4-4.7
			C18.2,51.4,20.3,49.3,22.9,49.3z M22.8,51.7c-1.2,0-2.3,1-2.3,2.2c-0.1,1.2,0.9,2.2,2.1,2.2c1.2,0,2.3-1,2.3-2.2
			C25,52.7,24,51.7,22.8,51.7z"/>
		<path fill="#FFFFFF" d="M28.7,49.3h3.5c2.6,0,4.6,2.1,4.4,4.7c-0.1,2.6-2.3,4.7-4.9,4.7h-3.5L28.7,49.3z M30.8,56.2h1
			c1.2,0,2.3-1,2.3-2.2c0.1-1.2-0.9-2.2-2.1-2.2h-1L30.8,56.2z"/>
		<path fill="#FFFFFF" d="M40.1,54.9c0,0.7,0.5,1.2,1.2,1.2c0.7,0,1.3-0.5,1.3-1.2l0.3-5.6h2.5L45,55c-0.1,2.1-1.9,3.7-3.9,3.7
			c-2.1,0-3.6-1.6-3.5-3.7l0.3-5.7h2.5L40.1,54.9z"/>
		<path fill="#FFFFFF" d="M52.4,52.4c-0.4-0.4-0.9-0.6-1.5-0.6c-1.3,0-2.2,0.9-2.3,2.2c-0.1,1.3,0.8,2.2,2.1,2.2
			c0.6,0,1.2-0.2,1.6-0.6l1.7,1.7c-0.9,0.8-2.1,1.4-3.4,1.4c-2.6,0-4.6-2.1-4.4-4.7c0.1-2.6,2.3-4.7,4.9-4.7c1.3,0,2.4,0.5,3.2,1.4
			L52.4,52.4z"/>
		<path fill="#FFFFFF" d="M61.2,52.4c-0.4-0.4-0.9-0.6-1.5-0.6c-1.3,0-2.2,0.9-2.3,2.2c-0.1,1.3,0.8,2.2,2.1,2.2
			c0.6,0,1.2-0.2,1.6-0.6l1.7,1.7c-0.9,0.8-2.1,1.4-3.4,1.4c-2.6,0-4.6-2.1-4.4-4.7c0.1-2.6,2.3-4.7,4.9-4.7c1.3,0,2.4,0.5,3.2,1.4
			L61.2,52.4z"/>
		<path fill="#FFFFFF" d="M64.4,49.3h2.5l-0.5,9.4h-2.5L64.4,49.3z"/>
		<path fill="#FFFFFF" d="M72.6,49.3c2.6,0,4.6,2.1,4.4,4.7c-0.1,2.6-2.3,4.7-4.9,4.7c-2.6,0-4.6-2.1-4.4-4.7
			C67.8,51.4,70,49.3,72.6,49.3z M72.4,51.7c-1.2,0-2.3,1-2.3,2.2c-0.1,1.2,0.9,2.2,2.1,2.2c1.2,0,2.3-1,2.4-2.2
			C74.6,52.7,73.7,51.7,72.4,51.7z"/>
		<path fill="#FFFFFF" d="M84.7,58.7l-4.2-4.4l-0.2,4.4h-2.5l0.5-9.4h1l4.2,4.4l0.2-4.4h2.5l-0.5,9.4H84.7z"/>
		<path fill="#FFFFFF" d="M87.5,49.3h5.8l-0.1,2h-3.4l-0.1,1.5h3l-0.1,2.1h-3l-0.1,1.7h3.4l-0.1,2H87L87.5,49.3z"/>
		<path fill="#FFFFFF" d="M97.7,52.2c0-0.4-0.3-0.7-0.7-0.7c-0.4,0-0.7,0.3-0.7,0.7c0,0.4,0.3,0.7,0.7,0.7c0.9,0,1.7,0.4,2.2,1.1
			c0.4,0.5,0.6,1.1,0.5,1.8c-0.1,1.6-1.4,2.9-3,2.9c-1.6,0-2.8-1.3-2.7-2.9h2.2c0,0.4,0.3,0.7,0.7,0.7c0.4,0,0.7-0.3,0.7-0.7
			c0-0.4-0.3-0.7-0.7-0.7c-1.6,0-2.8-1.3-2.7-2.9c0.1-1.6,1.4-2.9,3-2.9s2.8,1.3,2.7,2.9H97.7z"/>
	</g>
	<g>
		<path fill="#00CE7C" d="M100.4,27.4c-0.1-0.1-0.2-0.1-0.3,0l-0.6,0.3C99,27.9,99,28,98.8,28c0,0,0,0-0.1,0
			c-0.3,0.1-0.9,0.2-1.3,0.2c-0.5,0-1-0.2-1-1.4c0-0.5,0-1.1,0.1-1.9l1.5-13.2c0-0.1,0-0.2-0.1-0.2c-0.1-0.1-0.1-0.1-0.2-0.1h-6.9
			c-0.2,0-0.3,0.1-0.3,0.3l-0.1,0.9l-0.3-0.2c-0.6-0.4-1-0.6-1.4-0.8c-1.1-0.5-2.3-0.7-3.4-0.7c-6.3,0-12.1,7.6-12.1,16
			c0,0.6,0,1.2,0.1,1.8c-0.8,0.2-2.1,0.5-2.9,0.5c-0.8,0-1.5-0.2-2-0.7c-0.5-0.4-0.7-1.1-0.7-1.9V14.9h3.5c0.1,0,0.2,0,0.2-0.1
			c0.1-0.1,0.1-0.1,0.1-0.2L71.4,8c0-0.2-0.1-0.3-0.3-0.3h-3.6V0.3c0-0.1,0-0.2-0.1-0.2C67.3,0,67.2,0,67.1,0l-7.8,2
			c-0.1,0-0.2,0.2-0.2,0.3l0,13.4c0,0.1,0,0.2,0.1,0.2l5.2,5.9c-1.6,1.8-3.3,3.3-5.2,4.6c0,0-0.1,0.1-0.1,0.1
			c-0.4,0.3-0.8,0.5-1.2,0.7c-1.6,1-2.8,1.5-3.1,1.6c0,0,0,0-0.1,0c-2,0.8-3.9,1.2-5.5,1.2c-2.8,0-4.5-1.2-5.2-2
			c8.3-1.1,12.2-4,12.2-9.1c0-4.7-3.6-8.2-8.7-8.2c-6.6,0-12.5,6.6-12.5,14.1c0,6.8,4.6,11.4,11.5,11.4c2.8,0,7.2-0.4,13.5-4.2
			c0.4,0.8,0.9,1.4,1.6,2c0.8,0.8,1.9,1.4,3,1.8c1.2,0.4,2.4,0.6,3.8,0.6c1.6,0,3.8-0.3,7.1-2.6c1.5,1.6,3.7,2.5,6.2,2.5
			c3,0,5.3-1,7.6-3.4c1.3,2,3,2.9,5.5,2.9c1.9,0,3-0.4,4.7-1.6c0.1-0.1,0.1-0.1,0.1-0.2l0.8-6.5C100.5,27.6,100.5,27.5,100.4,27.4z
			 M48.4,16.8c0.7,0,1.3,0.5,1.3,1.2c0,1.8-2.7,3.5-6.4,4C44.5,19,46.7,16.8,48.4,16.8z M86.8,26.3c-1.3,1.9-2.5,2.9-3.6,2.9
			C82,29.2,81,28,81,26.3c0-1.6,0.7-3.6,1.7-5.1c1-1.6,2.5-2.6,3.8-2.6c1.3,0,2.2,0.7,2.8,2.2C88.4,23.7,87.8,24.8,86.8,26.3z"/>
		<path fill="#00CE7C" d="M31.3,8h-6.5c-0.1,0-0.2,0.1-0.3,0.2l-5.9,11.5c-0.5,0.9-0.9,1.9-1.4,2.9c-0.1,0.1-0.1,0.2-0.1,0.3
			c-0.1-0.1-0.1-0.3-0.2-0.5c-0.5-1-1-1.9-1.3-2.7L9.5,8.1C9.4,8,9.3,8,9.2,8H2.7C2.6,8,2.4,8.1,2.4,8.3L0,36.2c0,0.1,0,0.2,0.1,0.2
			c0.1,0.1,0.1,0.1,0.2,0.1h7.9c0.2,0,0.3-0.1,0.3-0.3l0.9-10.5c0,0,0,0,0,0c0.1,0.2,0.2,0.4,0.3,0.6l5.2,10.1
			c0.1,0.1,0.2,0.2,0.3,0.2h3.6c0.1,0,0.2-0.1,0.3-0.2l5.2-10.1c0.1-0.2,0.2-0.4,0.3-0.6l0.9,10.5c0,0.2,0.2,0.3,0.3,0.3h8
			c0.1,0,0.2,0,0.2-0.1c0.1-0.1,0.1-0.2,0.1-0.2L31.6,8.2C31.6,8.1,31.4,8,31.3,8z"/>
	</g>
</g>
</svg>
